<svg width="63" height="55" viewBox="0 0 63 55" fill="none" xmlns="http://www.w3.org/2000/svg">
<path d="M15.75 0H19.6875C21.8654 0 23.625 1.75558 23.625 3.92857V7.85714H11.8125V3.92857C11.8125 1.75558 13.5721 0 15.75 0ZM23.625 11.7857V51.0714C23.625 53.2444 21.8654 55 19.6875 55H3.9375C1.75957 55 0 53.2444 0 51.0714V43.8158C0 39.5681 1.15664 35.394 3.34687 31.7478C5.03262 28.9487 6.11543 25.8304 6.52148 22.5893L7.44434 15.2232C7.69043 13.2589 9.36387 11.7857 11.3572 11.7857H23.6373H23.625ZM51.6551 11.7857C53.6361 11.7857 55.3219 13.2589 55.568 15.2232L56.4785 22.5893C56.8846 25.8304 57.9674 28.9487 59.6531 31.7478C61.8434 35.394 63 39.5681 63 43.8158V51.0714C63 53.2444 61.2404 55 59.0625 55H43.3125C41.1346 55 39.375 53.2444 39.375 51.0714V11.7857H51.6551ZM39.375 3.92857C39.375 1.75558 41.1346 0 43.3125 0H47.25C49.4279 0 51.1875 1.75558 51.1875 3.92857V7.85714H39.375V3.92857ZM35.4375 11.7857V31.4286H27.5625V11.7857H35.4375Z" fill="white"/>
</svg>
