<svg width="24" height="24" viewBox="0 0 24 24" fill="none" xmlns="http://www.w3.org/2000/svg">
<path d="M24 1.60302C24 1.04808 23.7328 0.533133 23.2875 0.243162C22.8422 -0.0468087 22.2938 -0.0768057 21.8297 0.173169L16.3828 3.07788L7.97344 0.083178C7.59375 -0.0518084 7.18594 -0.0218112 6.82969 0.16817L0.829687 3.36785C0.31875 3.64282 0 4.19776 0 4.8027V22.4009C0 22.9559 0.267187 23.4708 0.7125 23.7608C1.15781 24.0508 1.70625 24.0808 2.17031 23.8308L7.6125 20.9261L16.0219 23.9158C16.4016 24.0508 16.8094 24.0208 17.1656 23.8308L23.1656 20.6311C23.6719 20.3611 23.9953 19.8062 23.9953 19.2013V1.60302H24ZM9 18.0464V3.8228L15 5.95759V20.1812L9 18.0464Z" fill="white"/>
</svg>
