<svg width="24" height="24" viewBox="0 0 24 24" fill="none" xmlns="http://www.w3.org/2000/svg">
<path d="M23.06 0.136305C23.635 0.383121 24 0.934826 24 1.54461V21.677C24 22.2868 23.635 22.8385 23.06 23.0853C22.485 23.3321 21.82 23.2402 21.345 22.8385L19.015 20.8688C16.835 19.025 14.08 17.9506 11.195 17.8199V22.4514C11.195 23.3079 10.48 24 9.595 24H7.995C7.11 24 6.395 23.3079 6.395 22.4514V17.8054C2.865 17.8054 0 15.0324 0 11.6108C0 8.18927 2.865 5.41623 6.4 5.41623H10.625C13.715 5.40655 16.695 4.31765 19.02 2.35281L21.35 0.383121C21.82 -0.01856 22.495 -0.110511 23.065 0.136305H23.06ZM11.2 14.7081V14.7178C14.715 14.8485 18.09 16.0971 20.8 18.27V4.94679C18.09 7.11974 14.715 8.36834 11.2 8.499V14.7081Z" fill="#324D3C"/>
</svg>
