<svg width="24" height="24" viewBox="0 0 24 24" fill="none" xmlns="http://www.w3.org/2000/svg">
<path d="M11.9896 17.8614C11.9896 18.2685 11.9928 18.6525 11.9896 19.0364C11.9784 20.004 12.0168 20.9747 11.9368 21.9361C11.8439 23.0585 11.0305 23.8542 9.87447 23.9425C8.92017 24.0152 7.94986 24.023 6.99716 23.9425C5.65058 23.8279 4.82438 22.8897 4.80836 21.5754C4.79395 20.3879 4.79555 19.2005 4.81157 18.0131C4.81637 17.7112 4.74272 17.5688 4.41928 17.4681C0.124938 16.1414 -1.42019 10.9566 1.49554 7.62499C2.8005 6.13412 4.50734 5.42197 6.52802 5.41888C8.20925 5.41578 9.89368 5.46997 11.5701 5.39101C14.6091 5.24703 17.2719 4.13856 19.5968 2.24981C20.3717 1.61972 21.1595 1.0051 21.9425 0.382745C22.3444 0.0638267 22.7783 -0.132788 23.2987 0.105627C23.8191 0.34559 23.9984 0.779072 23.9984 1.30699C23.9984 8.1591 23.9984 15.0128 24 21.8649C24 22.4284 23.8175 22.8836 23.2587 23.1158C22.6534 23.3681 22.1907 23.0755 21.7407 22.7117C20.7 21.8695 19.6784 20.9995 18.5912 20.2176C16.7499 18.8971 14.6572 18.1524 12.3835 17.8799C12.2682 17.866 12.1513 17.8691 11.988 17.8614H11.9896ZM21.6095 3.57967C18.817 5.99634 15.6467 7.37109 12.0152 7.66524V15.5438C13.8133 15.6939 15.5202 16.1073 17.1566 16.7962C18.7786 17.479 20.202 18.4574 21.6078 19.6046V3.57967H21.6095ZM9.57985 15.4602V7.72252C8.46064 7.72252 7.36704 7.70394 6.27664 7.72717C4.19992 7.77052 2.47546 9.41465 2.38259 11.4102C2.28812 13.4429 3.83325 15.2667 5.91958 15.4416C7.12206 15.5422 8.34055 15.4602 9.57985 15.4602ZM7.21172 17.8041V21.6574H9.57505V17.8041H7.21172Z" fill="#9DB2CE"/>
</svg>
