<svg width="24" height="25" viewBox="0 0 24 25" fill="none" xmlns="http://www.w3.org/2000/svg">
<path d="M9.11662 1.16578C9.2579 0.489171 9.87481 0 10.5906 0H13.4067C14.1225 0 14.7395 0.489171 14.8807 1.16578L15.5636 4.36597C16.2276 4.64027 16.8492 4.99229 17.4143 5.40831L20.6072 4.37968C21.2853 4.16024 22.0294 4.43454 22.3873 5.038L23.7953 7.40614C24.1532 8.0096 24.0261 8.7685 23.4892 9.23024L20.9792 11.3972C21.0216 11.7355 21.0404 12.083 21.0404 12.435C21.0404 12.787 21.0169 13.1345 20.9792 13.4728L23.4939 15.6443C24.0308 16.1061 24.1532 16.8695 23.8 17.4684L22.392 19.8366C22.0341 20.4355 21.29 20.7143 20.6119 20.4949L17.419 19.4663C16.8492 19.8823 16.2276 20.2297 15.5683 20.5086L14.8902 23.7042C14.7442 24.3854 14.1273 24.87 13.4162 24.87H10.6C9.88423 24.87 9.26731 24.3808 9.12604 23.7042L8.44791 20.5086C7.7839 20.2343 7.16699 19.8823 6.59717 19.4663L3.39018 20.4949C2.71205 20.7143 1.96799 20.44 1.61008 19.8366L0.202019 17.4684C-0.155884 16.865 -0.0287341 16.1061 0.50812 15.6443L3.02286 13.4728C2.98047 13.1345 2.96164 12.787 2.96164 12.435C2.96164 12.083 2.98518 11.7355 3.02286 11.3972L0.50812 9.22567C-0.0287341 8.76393 -0.151174 8.00046 0.202019 7.40157L1.61008 5.03343C1.96799 4.42997 2.71205 4.15567 3.39018 4.37511L6.58305 5.40374C7.15286 4.98771 7.77448 4.64027 8.43378 4.36139L9.11662 1.16578ZM11.9987 16.0924C14.0802 16.0832 15.7614 14.442 15.7519 12.4213C15.7425 10.4006 14.0519 8.7685 11.9704 8.77765C9.88894 8.78679 8.20774 10.428 8.21715 12.4487C8.22657 14.4694 9.91719 16.1015 11.9987 16.0924Z" fill="#324D3C"/>
</svg>
