<svg width="24" height="25" viewBox="0 0 24 25" fill="none" xmlns="http://www.w3.org/2000/svg">
<path d="M23.9866 8.84556C24.0041 9.45844 23.7174 9.91627 23.2845 10.3097C22.7447 10.8012 22.2079 11.2971 21.6799 11.8032C21.3698 12.1001 21.4137 12.8914 21.734 13.1767C22.2884 13.6696 22.8471 14.1596 23.3913 14.6628C24.0246 15.2493 24.1884 16.0977 23.7657 16.8598C23.0914 18.0782 22.3922 19.285 21.674 20.4786C21.2469 21.188 20.441 21.4249 19.5531 21.1602C18.8422 20.9481 18.1357 20.7228 17.4248 20.5078C17.0226 20.3864 16.3395 20.7931 16.2444 21.2041C16.0703 21.9632 15.9094 22.7253 15.7134 23.4786C15.494 24.3182 14.8285 24.8477 13.9626 24.8594C12.6578 24.877 11.3545 24.877 10.0498 24.8594C9.12827 24.8477 8.4876 24.3255 8.26088 23.4318C8.08243 22.7253 7.92153 22.0159 7.75917 21.305C7.62752 20.7302 7.01026 20.3659 6.45296 20.5385C5.72306 20.7653 5.00048 21.0154 4.26181 21.207C3.45292 21.4162 2.71132 21.1236 2.27982 20.4113C1.57333 19.247 0.888773 18.068 0.229086 16.8774C-0.205342 16.0919 -0.00202388 15.1967 0.670827 14.597C1.21642 14.1113 1.75617 13.6184 2.29591 13.1284C2.5592 12.89 2.5943 12.084 2.33687 11.8339C1.86441 11.3761 1.38463 10.927 0.897549 10.4853C-0.0985634 9.58277 -0.24191 8.80606 0.414851 7.64466C1.00579 6.60028 1.60989 5.56467 2.22277 4.53199C2.69816 3.73189 3.48218 3.42618 4.38614 3.68508C5.09848 3.88986 5.80351 4.12243 6.51147 4.3433C7.00733 4.49689 7.6363 4.12097 7.75185 3.61048C7.9186 2.87473 8.07804 2.13606 8.2682 1.40762C8.49345 0.547545 9.15753 0.0224285 10.0439 0.0121895C11.3355 -0.00390041 12.6286 -0.00390041 13.9201 0.0121895C14.8607 0.0224285 15.4999 0.541694 15.7295 1.46028C15.9094 2.17848 16.0689 2.90252 16.2371 3.62365C16.3556 4.13267 16.9699 4.4925 17.4804 4.34184C18.2483 4.11512 19.0075 3.85329 19.7842 3.66314C20.577 3.46713 21.2732 3.75529 21.7004 4.45008C22.3103 5.44473 22.8808 6.46425 23.4688 7.47352C23.7189 7.90356 24.0129 8.31751 23.9866 8.84702V8.84556ZM2.28713 8.77534C2.95998 9.40724 3.60504 10.0172 4.25303 10.6242C4.55874 10.9109 4.7445 11.2298 4.70355 11.6818C4.66113 12.1411 4.65235 12.6106 4.70355 13.0684C4.76205 13.5994 4.56751 13.9782 4.18867 14.3176C3.61821 14.8295 3.05945 15.3561 2.51239 15.8915C2.42609 15.9763 2.34857 16.1884 2.39391 16.2732C2.84735 17.1202 3.33444 17.9481 3.79812 18.7891C3.90636 18.9851 4.00729 19.0319 4.22816 18.9559C4.98439 18.6955 5.75085 18.4659 6.51293 18.2172C6.90787 18.0885 7.27793 18.1309 7.63337 18.3401C8.10437 18.6165 8.5739 18.893 9.04929 19.1592C9.42228 19.3684 9.649 19.6594 9.73238 20.0909C9.88158 20.8662 10.0571 21.637 10.2399 22.405C10.2663 22.5132 10.3979 22.6756 10.4828 22.677C11.5418 22.6961 12.6008 22.6887 13.6846 22.6887C13.7271 22.5205 13.7695 22.3699 13.8046 22.2177C13.983 21.4469 14.163 20.6775 14.3356 19.9066C14.4131 19.56 14.6208 19.3362 14.9309 19.1709C15.3595 18.9427 15.7851 18.7043 16.1903 18.4366C16.6291 18.147 17.0665 18.0739 17.5711 18.2479C18.3858 18.5273 19.2108 18.7745 20.0446 19.0393C20.5989 18.0519 21.1416 17.0836 21.696 16.0977C21.0304 15.4717 20.3751 14.8559 19.7198 14.2401C19.4127 13.9519 19.2371 13.6286 19.2796 13.1781C19.322 12.732 19.3307 12.2727 19.2796 11.828C19.2167 11.2839 19.4141 10.8963 19.8047 10.5467C20.3766 10.0362 20.9339 9.50817 21.4795 8.97135C21.5629 8.88944 21.6272 8.67588 21.5804 8.58812C21.1518 7.78362 20.6867 6.99814 20.2537 6.19511C20.1031 5.91573 19.9553 5.83528 19.635 5.95376C18.93 6.21266 18.2059 6.42037 17.4906 6.65148C17.0738 6.78605 16.692 6.76411 16.3088 6.51544C15.8831 6.23753 15.4326 5.99764 14.9865 5.7519C14.6266 5.55444 14.3882 5.28968 14.3034 4.86696C14.1425 4.06977 13.9377 3.28137 13.7666 2.48565C13.7212 2.27355 13.6554 2.17555 13.414 2.17994C12.4633 2.19457 11.5125 2.19164 10.5632 2.17994C10.3511 2.17702 10.2648 2.24723 10.2239 2.45347C10.0703 3.22871 9.8962 3.99956 9.73969 4.77481C9.65193 5.20923 9.43545 5.52226 9.02296 5.71826C8.66167 5.8894 8.2916 6.06931 7.9815 6.31651C7.41397 6.77142 6.84643 6.81384 6.17797 6.5564C5.44661 6.27409 4.68307 6.0737 3.93416 5.8382C3.37686 6.83139 2.83858 7.79093 2.28421 8.77827L2.28713 8.77534Z" fill="#9DB2CE"/>
<path d="M11.9535 8.05584C14.3275 7.99441 16.3212 9.96323 16.3695 12.4162C16.4163 14.7814 14.4708 16.7517 12.0281 16.8161C9.65411 16.8775 7.66043 14.9087 7.61216 12.4557C7.56535 10.0905 9.51077 8.1202 11.9535 8.05584ZM9.78868 12.4016C9.75943 13.6142 10.7146 14.6044 11.9477 14.6395C13.1603 14.6732 14.1534 13.7224 14.1929 12.4893C14.2324 11.2651 13.2612 10.2572 12.0164 10.2338C10.8067 10.2104 9.81794 11.1729 9.78868 12.403V12.4016Z" fill="#9DB2CE"/>
</svg>
