<svg width="24" height="24" viewBox="0 0 24 24" fill="none" xmlns="http://www.w3.org/2000/svg">
<path d="M10.9909 3.26036C11.6614 5.55881 10.9768 7.8787 9.46232 8.44661C7.94781 9.01453 6.17541 7.61081 5.5049 5.31236C4.83439 3.01391 5.51897 0.694027 7.03348 0.126112C8.54799 -0.441804 10.3204 0.961911 10.9909 3.26036ZM4.7031 8.92345C5.5893 10.6593 5.37361 12.6792 4.22484 13.4293C3.07606 14.1793 1.42558 13.381 0.544068 11.6452C-0.337442 9.90926 -0.126442 7.88941 1.02233 7.13933C2.17111 6.38926 3.82159 7.18755 4.7031 8.92345ZM3.24017 19.7781C5.69715 12.2077 10.0625 10.2843 11.999 10.2843C13.9355 10.2843 18.3009 12.2077 20.7578 19.7781C20.9266 20.2978 21.0017 20.855 21.0017 21.4122V21.498C21.0017 22.8802 20.0217 24 18.8119 24C18.2727 24 17.7382 23.925 17.2177 23.775L13.0915 22.5963C12.3741 22.3927 11.6239 22.3927 10.9065 22.5963L6.78028 23.775C6.25981 23.925 5.72528 24 5.18606 24C3.97633 24 2.99635 22.8802 2.99635 21.498V21.4122C2.99635 20.855 3.07137 20.2978 3.24017 19.7781ZM19.7732 13.4293C18.6244 12.6792 18.4087 10.6593 19.2949 8.92345C20.1811 7.18755 21.8269 6.38926 22.9757 7.13933C24.1244 7.88941 24.3401 9.90926 23.4539 11.6452C22.5677 13.381 20.9219 14.1793 19.7732 13.4293ZM14.5357 8.44661C13.0212 7.8787 12.3366 5.55881 13.0071 3.26036C13.6776 0.961911 15.45 -0.441804 16.9645 0.126112C18.479 0.694027 19.1636 3.01391 18.4931 5.31236C17.8226 7.61081 16.0502 9.01453 14.5357 8.44661Z" fill="#324D3C"/>
</svg>
