<svg width="24" height="24" viewBox="0 0 24 24" fill="none" xmlns="http://www.w3.org/2000/svg">
<path d="M24 1.24203C24 0.812736 23.7984 0.414476 23.4703 0.186899C23.1422 -0.0406778 22.725 -0.0613665 22.3781 0.130005L16.5234 3.31608L8.4375 0.279999C7.79531 0.0369055 7.09219 0.0834551 6.47344 0.398959L0.646875 3.42987C0.253125 3.63159 0 4.07122 0 4.55224V22.7584C0 23.1825 0.196875 23.5808 0.520312 23.8084C0.84375 24.0359 1.25156 24.0618 1.60312 23.8808L7.57031 20.7826L15.5719 23.7256C16.2141 23.9635 16.9078 23.917 17.5219 23.5963L23.3531 20.5706C23.7469 20.3637 24 19.9292 24 19.4482V1.24203ZM6.75 3.00575V18.4706L2.25 20.8085V5.34359L6.75 3.00575ZM9 18.693V3.11954L15 5.36945V20.9016L9 18.693ZM17.25 5.69012L21.75 3.2385V18.662L17.25 20.9998V5.69012Z" fill="white"/>
</svg>
