<?xml version="1.0" encoding="UTF-8"?>
<svg id="Layer_1" data-name="Layer 1" xmlns="http://www.w3.org/2000/svg" viewBox="0 0 139.89 159.92">
  <defs>
    <style>
      .cls-1 {
        stroke-width: 0px;
      }
    </style>
  </defs>
  <path class="cls-1" d="M129.88,139.85c1.35.34,2.59.52,3.72.97,4.21,1.66,6.7,5.78,6.17,10.07-.59,4.86-3.83,8.22-8.65,8.9-.98.14-1.99.12-2.99.12-32.41,0-64.82,0-97.23,0-17.8,0-30.86-13.03-30.88-30.87C-.01,96.22,0,63.39.02,30.56.03,13.46,12.88.2,30.01.1c31.41-.17,62.82-.09,94.23-.02,9.37.02,15.6,6.37,15.62,15.77.05,29.58.05,59.16,0,88.73-.01,6.36-2.88,11.11-8.73,13.94-.54.26-1.18,1.02-1.18,1.55-.08,6.57-.05,13.14-.05,19.77ZM109.92,119.92c-1.12,0-2.01,0-2.91,0-22.97,0-45.95,0-68.92,0-2.83,0-5.66-.08-8.49.04-5.75.24-9.92,4.81-9.68,10.49.23,5.63,4.51,9.58,10.61,9.59,25.89.03,51.78.01,77.66,0,.55,0,1.11-.11,1.74-.18v-19.95ZM74.97,39.92c-8.82,0-17.65-.02-26.47.02-1.14,0-2.36.05-3.41.44-3.79,1.42-5.74,4.71-5.14,8.39.59,3.62,3.81,6.27,7.87,6.27,18.15.03,36.29.02,54.44-.01.97,0,2-.19,2.88-.57,3.63-1.56,5.45-4.84,4.79-8.38-.67-3.53-3.82-6.12-7.74-6.14-9.07-.05-18.15-.02-27.22-.02ZM74.95,69.92c-8.82,0-17.65-.02-26.47.02-1.14,0-2.36.05-3.41.45-3.79,1.43-5.73,4.74-5.12,8.4.61,3.61,3.83,6.23,7.89,6.25,8.66.04,17.31.01,25.97.01,9.41,0,18.81.02,28.22,0,3.48,0,6.39-1.93,7.46-4.8,1.9-5.12-1.67-10.25-7.32-10.3-9.07-.08-18.15-.02-27.22-.02Z"/>
</svg>