<svg width="24" height="26" viewBox="0 0 24 26" fill="none" xmlns="http://www.w3.org/2000/svg">
<path d="M22.3078 22.7953C22.5428 22.8141 22.7589 22.8126 22.9647 22.8503C23.5754 22.9604 24.0299 23.4903 23.9956 24.0327C23.9579 24.6129 23.4553 25.0925 22.8223 25.1444C22.6954 25.1554 22.5651 25.1538 22.4364 25.1538C16.4311 25.1538 10.4274 25.1538 4.4221 25.1538C1.88514 25.1538 0.00686128 23.4478 0.00514596 21.1191C-0.00171532 15.5356 -0.00171532 9.95053 0.00514596 4.36701C0.00857661 1.89838 2.03437 0.0225333 4.75316 0.0115266C9.84251 -0.0073419 14.9319 0.000520257 20.0212 0.00995452C21.8772 0.0130993 23.3713 0.984829 23.8447 2.64683C23.9442 2.9959 23.9922 3.36855 23.9922 3.7302C24.0025 7.81996 24.0008 11.9097 23.9973 15.9995C23.9973 17.1489 23.5462 18.1159 22.5651 18.8486C22.3575 19.0043 22.2734 19.1647 22.2769 19.4131C22.2923 20.4226 22.282 21.432 22.2837 22.4415C22.2837 22.5563 22.2975 22.6711 22.306 22.7937L22.3078 22.7953ZM2.55411 17.6615C3.5267 17.2416 4.50272 17.3124 5.46844 17.3108C10.2713 17.3108 15.0725 17.2967 19.8754 17.3218C20.8566 17.3266 21.4707 16.7605 21.4638 15.8847C21.4329 11.8484 21.4347 7.81209 21.4638 3.7758C21.4707 2.90785 20.872 2.32449 19.884 2.33078C14.9096 2.35909 9.93686 2.34336 4.96242 2.34494C3.42378 2.34494 2.55583 3.14528 2.55583 4.56042C2.55583 8.76653 2.55583 12.9742 2.55583 17.1803V17.6599L2.55411 17.6615ZM19.7159 19.649C19.5409 19.649 19.414 19.649 19.2871 19.649C14.3452 19.649 9.40339 19.649 4.46155 19.649C4.34662 19.649 4.23341 19.649 4.11849 19.6584C3.21794 19.737 2.55411 20.41 2.55411 21.2402C2.55411 22.1553 3.31057 22.8126 4.39294 22.8141C9.39138 22.8189 14.3915 22.8157 19.39 22.8141C19.4981 22.8141 19.6061 22.7937 19.7159 22.7827V19.6474V19.649Z" fill="#9DB2CE"/>
<path d="M12.8588 8.63705C11.315 8.63705 9.77122 8.64649 8.22743 8.63391C7.24969 8.62605 6.65276 7.87131 6.95294 7.0631C7.11247 6.63227 7.6202 6.30836 8.18626 6.30207C9.0302 6.29264 9.87242 6.29893 10.7164 6.29893C12.96 6.29893 15.2054 6.29421 17.449 6.30207C18.4559 6.30522 19.0717 7.05367 18.7664 7.87445C18.5965 8.33044 18.0819 8.63548 17.4473 8.63705C15.9172 8.64177 14.3889 8.63705 12.8588 8.63705Z" fill="#9DB2CE"/>
<path d="M12.8406 13.3578C11.3106 13.3578 9.78221 13.3656 8.25214 13.3546C7.26412 13.3483 6.66204 12.6219 6.94507 11.8074C7.10631 11.342 7.61748 11.0243 8.24357 11.0212C9.48718 11.0149 10.7308 11.0196 11.9744 11.0196C13.8046 11.0196 15.6332 11.0133 17.4634 11.0228C18.4514 11.0275 19.0535 11.7555 18.7705 12.57C18.6093 13.0354 18.0981 13.353 17.472 13.3562C15.9282 13.3609 14.3844 13.3578 12.8406 13.3578Z" fill="#9DB2CE"/>
</svg>
