<svg width="24" height="24" viewBox="0 0 24 24" fill="none" xmlns="http://www.w3.org/2000/svg">
<path d="M11.999 11.2842C13.3241 11.2842 17.1851 12.6911 19.5801 19.4189L19.8066 20.0869C19.938 20.4913 20.0019 20.9423 20.002 21.4121V21.498C20.0019 22.4574 19.3479 23 18.8115 23C18.3659 23 17.9249 22.9383 17.4951 22.8145L17.4922 22.8135L13.3662 21.6348L13.3643 21.6338C12.4686 21.3797 11.5294 21.3797 10.6338 21.6338L10.6318 21.6348L6.50586 22.8135L6.50293 22.8145C6.07317 22.9383 5.63213 23 5.18652 23C4.65018 23 3.99614 22.4574 3.99609 21.498V21.4121C3.9961 21.0596 4.03215 20.7179 4.10547 20.3984L4.19141 20.0869C6.56173 12.7835 10.6312 11.2842 11.999 11.2842ZM1.56934 7.97656C1.78506 7.83583 2.10046 7.79224 2.52734 7.99902C2.96425 8.21073 3.45195 8.66799 3.81152 9.37598L3.8125 9.37793C4.17301 10.0841 4.29738 10.8296 4.23242 11.4404C4.16598 12.0649 3.92218 12.4322 3.67773 12.5918C3.46201 12.7326 3.14664 12.7761 2.71973 12.5693C2.28283 12.3576 1.79508 11.9004 1.43555 11.1924C1.07652 10.4853 0.952087 9.73934 1.0166 9.12793C1.08264 8.50273 1.32567 8.13566 1.56934 7.97656ZM21.4727 7.99902C21.8986 7.7925 22.2129 7.83575 22.4287 7.97656C22.6731 8.13615 22.9169 8.50362 22.9834 9.12793C23.0484 9.73875 22.9239 10.4843 22.5635 11.1904C22.2011 11.9003 21.712 12.3577 21.2754 12.5693C20.8495 12.7757 20.5361 12.7326 20.3203 12.5918C20.0759 12.4322 19.8321 12.0649 19.7656 11.4404C19.7007 10.8296 19.825 10.0841 20.1855 9.37793C20.5478 8.66836 21.0362 8.21076 21.4727 7.99902ZM7.38477 1.0625C7.72499 0.934982 8.18327 0.986753 8.70801 1.40234C9.2351 1.81986 9.74384 2.55499 10.0312 3.54004C10.3181 4.5234 10.3043 5.48229 10.0869 6.21973C9.86537 6.97106 9.47841 7.37309 9.11133 7.51074C8.77116 7.63828 8.31275 7.58632 7.78809 7.1709C7.2609 6.75337 6.75227 6.0175 6.46484 5.03223C6.17805 4.04905 6.19185 3.09089 6.40918 2.35352C6.63072 1.60214 7.01768 1.20015 7.38477 1.0625ZM15.29 1.40234C15.8148 0.986737 16.2731 0.934964 16.6133 1.0625C16.9804 1.20015 17.3673 1.60214 17.5889 2.35352C17.8062 3.09088 17.82 4.04906 17.5332 5.03223C17.2458 6.0175 16.7372 6.75337 16.21 7.1709C15.6853 7.58632 15.2269 7.63826 14.8867 7.51074C14.5196 7.37309 14.1327 6.97105 13.9111 6.21973C13.6937 5.48229 13.6799 4.5234 13.9668 3.54004C14.2542 2.55497 14.7629 1.81985 15.29 1.40234Z" stroke="#9DB2CE" stroke-width="2"/>
</svg>
